<svg xmlns="http://www.w3.org/2000/svg" width="785.251" height="597.372" viewBox="0 0 785.251 597.372"><defs><style>.a{fill:#efefef;stroke:blue;stroke-width:2px;}.b{opacity:0.1;}.c{fill:#3f3d56;}.d{fill:blue;}.e{fill:#a8a8a8;}.f{opacity:0.2;}.g{fill:#ffb9b9;}.h{fill:#d0cde1;}.i{fill:#2f2e41;}.j{fill:#a0616a;}.k{fill:#575a89;}</style></defs><g transform="translate(0 1.004)"><path class="a" d="M781.377,274.585C746.863,138.87,627.608,40.9,487.628,36.973c-74-2.077-151.875,22.466-208.572,108.353-101.351,153.532,6.228,259.627,81.23,310.042a469.3,469.3,0,0,1,97,87.186c50.661,60.117,148.122,134.822,264.193,17.772C805.61,475.487,804.366,364.985,781.377,274.585Z" transform="translate(-106.561 -36.853)"/><path class="b" d="M719.6,444.479l71.019-70.8-71.019-70.8,21.652-21.58,92.671,92.383-92.671,92.383L719.6,444.479Z" transform="translate(-200.237 -78.273)"/><path class="b" d="M494.6,442.016h28.87v-28.87H494.6Zm144.925-28.87h-28.87v28.87h28.87Zm-86.9,28.87H581.5v-28.87h-28.87Z" transform="translate(-178.045 -141.561)"/><path class="b" d="M340.323,443.479l-71.091-70.8,71.019-70.8L318.6,280.294,226,372.677l92.671,92.383Z" transform="translate(-62.887 -77.995)"/><path class="c" d="M841.251,787.777c0,11.958-175.785,53.409-392.626,53.409S56,799.735,56,787.777s175.785,10.1,392.626,10.1S841.251,775.819,841.251,787.777Z" transform="translate(-56 -244.818)"/><path class="b" d="M841.251,787.777c0,11.958-175.785,53.409-392.626,53.409S56,799.735,56,787.777s175.785,10.1,392.626,10.1S841.251,775.819,841.251,787.777Z" transform="translate(-56 -244.818)"/><ellipse class="c" cx="392.626" cy="21.652" rx="392.626" ry="21.652" transform="translate(0 521.307)"/><path class="c" d="M688.7,644.806c0,46.2,28.985,83.59,64.806,83.59" transform="translate(-232.055 -206.023)"/><path class="d" d="M778.487,728.034c0-46.722,32.346-84.529,72.319-84.529" transform="translate(-257.04 -205.661)"/><path class="d" d="M721.229,650.609c0,43.888,18.483,79.4,41.325,79.4" transform="translate(-241.108 -207.638)"/><path class="c" d="M778.487,718.981c0-59.7,37.387-108.009,83.59-108.009" transform="translate(-257.04 -196.608)"/><path class="e" d="M759.6,759.525s9.19-.283,11.96-2.255,14.137-4.327,14.824-1.164,13.812,15.732,3.436,15.816-24.109-1.616-26.874-3.3S759.6,759.525,759.6,759.525Z" transform="translate(-251.784 -236.563)"/><path class="f" d="M790,772.731c-10.376.084-24.109-1.616-26.874-3.3-2.105-1.282-2.944-5.884-3.225-8.007l-.307.012s.582,7.412,3.346,9.1,16.5,3.384,26.874,3.3c3-.024,4.03-1.09,3.973-2.668C793.374,772.117,792.232,772.713,790,772.731Z" transform="translate(-251.784 -238.473)"/><path class="g" d="M912.272,415.06s-22.221-16.871-23.908-10.687,16.3,20.24,16.3,20.24Z" transform="translate(-287.584 -138.741)"/><path class="b" d="M912.272,415.06s-22.221-16.871-23.908-10.687,16.3,20.24,16.3,20.24Z" transform="translate(-287.584 -138.741)"/><path class="h" d="M991.189,345.7s-26.425,47.227-26.987,53.974-.562,7.309-2.811,6.747-33.171-3.936-35.982-2.811-8.433-6.747-8.433-6.747-10.682,10.682-8.433,12.931,9,3.373,10.12,6.184,2.811,5.622,7.871,5.06,39.356,9,43.854,7.309,5.622-4.5,7.871-4.5S985,421.6,985,421.034s15.742-30.36,15.742-30.36S1019.3,350.193,991.189,345.7Z" transform="translate(-293.143 -122.792)"/><path class="b" d="M991.189,345.7s-26.425,47.227-26.987,53.974-.562,7.309-2.811,6.747-33.171-3.936-35.982-2.811-8.433-6.747-8.433-6.747-10.682,10.682-8.433,12.931,9,3.373,10.12,6.184,2.811,5.622,7.871,5.06,39.356,9,43.854,7.309,5.622-4.5,7.871-4.5S985,421.6,985,421.034s15.742-30.36,15.742-30.36S1019.3,350.193,991.189,345.7Z" transform="translate(-293.143 -122.792)"/><path class="i" d="M964.784,299.036a46.759,46.759,0,0,0,.144,8.964c.854,6.459,3.827,13.193,1.019,19.222-1.02,2.189-2.747,4.1-3.688,6.31-1.991,4.689-.186,9.889-.457,14.879-.35,6.446-4.45,12.658-10.686,16.19,10.655.331,20.789-4.937,27.493-12.116s10.438-16.083,13.237-24.992a54.336,54.336,0,0,0,2.746-12.935,18.646,18.646,0,0,0-.872-7.5,28.561,28.561,0,0,0-3.856-6.585,25.968,25.968,0,0,0-5.881-6.523c-3.051-2.163-8.934-4.335-12.981-4.02C966.04,290.321,964.993,295.591,964.784,299.036Z" transform="translate(-305.076 -107.268)"/><path class="g" d="M992.792,325.7s6.185,21.927,1.124,28.111,30.36-2.811,30.36-2.811-17.429-17.429-9-28.674Z" transform="translate(-316.673 -116.289)"/><path class="b" d="M992.792,325.7s6.185,21.927,1.124,28.111,30.36-2.811,30.36-2.811-17.429-17.429-9-28.674Z" transform="translate(-316.673 -116.289)"/><path class="d" d="M719.6,425.479l71.019-70.8-71.019-70.8,21.652-21.58,92.671,92.383-92.671,92.383L719.6,425.479Z" transform="translate(-200.237 -72.986)"/><path class="g" d="M908.748,695v16.3l8.433,10.12,7.309-3.373-2.249-23.613Z" transform="translate(-252.87 -193.236)"/><path class="i" d="M959.6,751.459s-2.249-7.871-6.185-2.249-7.871,17.991-10.12,18.554-17.991,17.991-2.249,17.991,20.8-7.309,20.8-7.309,15.742-6.184,15.742-7.309-2.249-21.927-3.373-21.927-1.687,3.936-4.5,3.936S959.6,751.459,959.6,751.459Z" transform="translate(-300.351 -234.511)"/><path class="g" d="M960.724,698.682l-.562,15.18,13.493,5.622V697.558Z" transform="translate(-267.176 -194.104)"/><path class="i" d="M1028.046,754.526s-7.309-7.871-11.245-6.185a38.851,38.851,0,0,0-5.622,2.811s-2.249,7.309-3.373,13.493-1.687,9-2.811,11.245-2.249,10.682,9,11.807,14.618-5.06,14.618-5.06l2.811-14.618S1030.295,754.526,1028.046,754.526Z" transform="translate(-319.88 -234.767)"/><path class="i" d="M968.174,505.334s-16.3,36.545-14.056,69.716c0,0-5.622,12.931-2.249,33.171s7.871,60.721,7.871,60.721,15.18,1.687,16.3-1.124c0,0,1.124-28.111,2.249-29.236s-.562-26.987-2.249-32.047,15.742-55.1,15.742-55.1l-4.5-62.407Z" transform="translate(-304.986 -162.676)"/><path class="b" d="M968.174,505.334s-16.3,36.545-14.056,69.716c0,0-5.622,12.931-2.249,33.171s7.871,60.721,7.871,60.721,15.18,1.687,16.3-1.124c0,0,1.124-28.111,2.249-29.236s-.562-26.987-2.249-32.047,15.742-55.1,15.742-55.1l-4.5-62.407Z" transform="translate(-304.986 -162.676)"/><path class="i" d="M968.643,501.351,979.326,524.4s5.06,52.287,7.871,59.034c0,0,1.124,19.116,6.185,25.3s9,60.721,9,60.721,14.056,3.936,15.18,0,4.5-30.922,4.5-30.922,1.124-23.051-5.06-38.231,7.309-69.716,7.309-69.716,14.056-26.425-6.184-47.789Z" transform="translate(-309.954 -160.942)"/><circle class="g" cx="23.051" cy="23.051" r="23.051" transform="translate(665.437 170.054)"/><path class="h" d="M1016.549,352.706s-24.176,0-27.549,2.811a4.486,4.486,0,0,1-6.185,0s-8.433.562-10.682,7.309-9,15.742-9,15.742-10.12,7.309-4.5,26.425,1.124,50.038,1.124,50.038-4.5,6.747,0,9.558,6.185,3.936,5.622,6.185,51.163-18.553,51.163-22.489-1.124-7.309,0-9a8.023,8.023,0,0,0,1.125-7.309c-1.125-2.811,1.124-3.373.562-6.184s2.811-23.614,5.06-32.609S1024.983,353.268,1016.549,352.706Z" transform="translate(-306.697 -124.743)"/><path class="g" d="M912.272,424.408s-22.221-16.871-23.908-10.687,16.3,20.24,16.3,20.24Z" transform="translate(-287.584 -141.342)"/><path class="h" d="M991.189,356.6s-26.425,47.227-26.987,53.974-.562,7.309-2.811,6.747-33.171-3.936-35.982-2.811-8.433-6.747-8.433-6.747-10.682,10.682-8.433,12.931,9,3.373,10.12,6.184,2.811,5.622,7.871,5.06,39.356,9,43.854,7.309,5.622-4.5,7.871-4.5S985,432.5,985,431.94s15.742-30.36,15.742-30.36S1019.3,361.1,991.189,356.6Z" transform="translate(-293.143 -125.827)"/><path class="i" d="M987.156,305.421c-.319-2.283-1.489-4.354-2.089-6.58a13.659,13.659,0,0,1,1.555-10.606c3.306-5.34,9.8-7.706,14.325-12.059.094,2.218,1.633,4.113,3.333,5.539s3.652,2.583,5.092,4.272a16.733,16.733,0,0,1,2.966,6.007,21.111,21.111,0,0,1,1.172,7.879,9.881,9.881,0,0,1-3.414,7c-1.686,1.333-4.042,2.094-4.857,4.083a6.961,6.961,0,0,0-.271,3.082c.386,6.186.747,12.481-.71,18.505s-5.025,11.844-10.618,14.515c4.6.326,9.289.644,13.748-.516s8.724-4.082,10.261-8.425c.758-2.143.83-4.526,1.908-6.527,2.728-5.065,10.259-5.3,13.958-9.7a14.905,14.905,0,0,0,2.728-6.275c3.124-13.182.929-27.18-3.827-39.865-1.639-4.372-3.68-8.775-7.2-11.848-2.992-2.615-6.812-4.056-10.59-5.286a61.776,61.776,0,0,0-16.99-3.457,21.578,21.578,0,0,0-7.458.871,22.172,22.172,0,0,0-6.562,3.738c-9.079,7.064-15.26,18.355-14.44,29.829.5,6.943,3.438,13.513,7.217,19.359,1.322,2.044,4.445,6.4,7.347,5.118C986.378,312.908,987.5,307.887,987.156,305.421Z" transform="translate(-310.083 -97.589)"/><path class="d" d="M494.6,423.016h28.87v-28.87H494.6Zm144.925-28.87h-28.87v28.87h28.87Zm-86.9,28.87H581.5v-28.87h-28.87Z" transform="translate(-178.045 -136.274)"/><ellipse class="i" cx="24.291" cy="18.947" rx="24.291" ry="18.947" transform="translate(124.535 133.945)"/><path class="j" d="M267.178,428.6s21.862,1.457,25.749-1.457,20.4,3.887,21.862,7.773-23.32,4.372-27.206,4.372-22.348,5.83-22.348,5.83Z" transform="translate(-114.222 -145.258)"/><path class="i" d="M203.081,742.182s-10.189,25.693-4.873,28.794,61.132.886,61.132.886,9.3-5.759-1.329-9.746c0,0-8.86-.443-14.619-3.987s-12.4-10.189-12.4-10.189-.443-9.746-3.987-7.531a9.1,9.1,0,0,0-3.987,6.2Z" transform="translate(-95.144 -232.535)"/><path class="b" d="M203.081,742.182s-10.189,25.693-4.873,28.794,61.132.886,61.132.886,9.3-5.759-1.329-9.746c0,0-8.86-.443-14.619-3.987s-12.4-10.189-12.4-10.189-.443-9.746-3.987-7.531a9.1,9.1,0,0,0-3.987,6.2Z" transform="translate(-95.144 -232.535)"/><path class="d" d="M340.323,424.479l-71.091-70.8,71.019-70.8L318.6,261.294,226,353.677l92.671,92.383Z" transform="translate(-62.887 -72.708)"/><path class="i" d="M181.075,752.994s-11.174,28.178-5.344,31.579,67.044.972,67.044.972,10.2-6.316-1.457-10.688c0,0-9.717-.486-16.032-4.372s-13.6-11.174-13.6-11.174-.486-10.688-4.372-8.259a9.985,9.985,0,0,0-4.372,6.8Z" transform="translate(-88.848 -235.487)"/><path class="i" d="M247.856,501.484l-6.8,61.214s-2.429,29.15-9.717,35.466c0,0,0,9.231-2.429,12.146l-3.4,38.381s4.858,14.089,4.372,16.518,1.943,10.2,1.457,11.174-23.32,0-23.32,0l4.858-78.219,15.061-108.826Z" transform="translate(-98.301 -162.763)"/><path class="b" d="M247.856,501.484l-6.8,61.214s-2.429,29.15-9.717,35.466c0,0,0,9.231-2.429,12.146l-3.4,38.381s4.858,14.089,4.372,16.518,1.943,10.2,1.457,11.174-23.32,0-23.32,0l4.858-78.219,15.061-108.826Z" transform="translate(-98.301 -162.763)"/><path class="i" d="M225.974,498.6s-5.344,50.04-7.773,60.729a138.179,138.179,0,0,0-2.915,21.377s-.486,15.546-4.858,19.919a13.131,13.131,0,0,0-3.887,9.717s-4.372,49.069-1.943,54.9,4.858,10.688,2.429,14.575-29.15,3.887-29.15.972,0-5.344-1.457-6.8,0-10.688,0-10.688-5.83-43.239-.486-55.87,7.773-47.125,7.773-47.125-3.887-39.352-8.745-45.668.972-28.664.972-28.664Z" transform="translate(-88.565 -161.826)"/><path class="j" d="M227.436,282.777c.565,1.287,1.917,2,3.147,2.681,7.133,3.93,13.1,9.627,18.986,15.259a22.289,22.289,0,0,1,.884-15.073c.7-1.626,1.623-3.375,1.121-5.074a6.316,6.316,0,0,0-2.464-2.948A76.382,76.382,0,0,0,241.6,272.5c-1.819-1.088-5.559-3.985-7.646-3.67-.11,2.82-.167,5.342-1.4,7.978C232.256,277.43,227.652,283.269,227.436,282.777Z" transform="translate(-103.704 -101.396)"/><circle class="j" cx="19.919" cy="19.919" r="19.919" transform="translate(128.665 147.791)"/><path class="k" d="M235.894,320.841s3.4-17-6.316-22.834-20.891-12.632-20.891-12.632-3.4-.486-4.858,6.8c0,0-27.692,5.344-30.607,31.579s1.943,64.615,1.943,64.615-4.372,33.522-9.717,51.5c0,0-4.372,3.887,15.061-1.943s53.441,16.518,53.441,16.518,3.4-3.4,3.4-5.83,3.887-16.518,3.887-16.518,3.4-59.757,4.858-66.559S240.266,321.813,235.894,320.841Z" transform="translate(-86.338 -106.005)"/><path class="i" d="M246.971,256.506a8.307,8.307,0,0,1,3.907-1.04,7.434,7.434,0,0,0,3.864-1.151c1.882-1.445,2.02-4.236,3.4-6.168,1.993-2.8,5.968-3.134,9.4-2.994,2.1.086,4.359.211,6.126-.924,1.814-1.165,2.637-3.361,3.249-5.429.723-2.445,1.191-5.436-.6-7.249-1.245-1.259-3.21-1.508-4.593-2.614-1.434-1.147-2.024-3.013-2.8-4.676a12.635,12.635,0,0,0-4.069-5.1c-2.609-1.813-5.941-2.219-9.118-2.185s-6.367.452-9.519.062c-2.583-.319-5.159-1.179-7.733-.8-3.281.485-6,2.96-7.612,5.856a32.718,32.718,0,0,0-2.983,9.449l-1.829,8.833a23.309,23.309,0,0,0-.7,8.315c.908,5.728,5.974,10.281,6.323,16.07a9.865,9.865,0,0,1,6.021-7.16,1.884,1.884,0,0,1,1.227-.149c.5.161.8.664,1.115,1.086.832,1.106,3.447,2.785,4.928,2C246.293,259.841,245.3,257.636,246.971,256.506Z" transform="translate(-103.081 -86.744)"/><path class="j" d="M185.666,395.859s-3.4,21.376,10.688,19.433c0,0,7.287-.972,8.259,0s36.923-5.344,41.781-10.688c0,0,5.83-1.943,8.745.972s32.065,5.83,23.32-2.915-22.348-10.688-22.348-10.688l-18.462.972s-9.717,2.915-15.547,0S199.755,391,199.755,391Z" transform="translate(-91.981 -135.356)"/><path class="k" d="M204.974,304.226s-21.862,2.429-21.862,34.008v40.324s12.146-5.344,14.575-4.858,12.146-6.316,12.146-6.316,11.174-26.235,10.2-33.522S219.549,305.2,204.974,304.226Z" transform="translate(-91.37 -111.253)"/><ellipse class="i" cx="18.704" cy="9.717" rx="18.704" ry="9.717" transform="translate(129.879 145.605)"/><ellipse class="i" cx="6.559" cy="16.275" rx="6.559" ry="16.275" transform="translate(124.535 140.746)"/></g></svg>